<?xml version="1.0" ?><svg data-name="Your Icons" id="Your_Icons" viewBox="0 0 96 96" xmlns="http://www.w3.org/2000/svg"><defs><style>.cls-1{fill:#231f20;}</style></defs><title/><path class="cls-1" d="M56.65,21.19H39.35A14.48,14.48,0,0,0,24.88,35.65V75.59a7.88,7.88,0,0,0,7.87,7.87h30.5a7.88,7.88,0,0,0,7.87-7.87V35.65A14.48,14.48,0,0,0,56.65,21.19Zm13.47,54.4a6.88,6.88,0,0,1-6.87,6.87H32.75a6.88,6.88,0,0,1-6.87-6.87V64H70.12Zm0-12.6H25.88V40.92H70.12Zm0-23.07H25.88V35.65A13.48,13.48,0,0,1,39.35,22.19h17.3A13.48,13.48,0,0,1,70.12,35.65Z"/><path class="cls-1" d="M61.27,15.53a5,5,0,0,0-5-5H39.72a5,5,0,0,0-5,5v4H61.27Zm-1,3H35.73v-3a4,4,0,0,1,4-4H56.28a4,4,0,0,1,4,4Z"/><path class="cls-1" d="M45.46,59.21h5.08V54.85h4.35V49.79H50.54V45.43H45.46v4.36H41.11v5.06h4.35Zm-3.35-5.36V50.79h4.35V46.43h3.08v4.36h4.35v3.06H49.54v4.36H46.46V53.85Z"/></svg>